<svg data-v-fde0c5aa="" xmlns="http://www.w3.org/2000/svg" viewBox="0 0 300 300" class="iconLeft"><!----><defs data-v-fde0c5aa=""><!----></defs><rect data-v-fde0c5aa="" fill="transparent" x="0" y="0" width="300px" height="300px" class="logo-background-square"></rect><defs data-v-fde0c5aa=""><!----></defs><g data-v-fde0c5aa="" id="8a9884bb-9c0b-4741-8323-d4908e8867b4" fill="#000000" transform="matrix(3.261358572496368,0,0,3.261358572496368,97.12775697954157,124.61032245562264)"><path d="M2.43 11.65L4.72 11.65L4.72 11.65Q8.31 11.65 8.31 7.52L8.31 7.52L8.31 7.52Q8.31 3.92 4.72 3.92L4.72 3.92L2.43 3.92L2.43 11.65ZM4.72 12.67L1.16 12.67L1.16 2.90L4.72 2.90L4.72 2.90Q9.57 2.90 9.57 7.52L9.57 7.52L9.57 7.52Q9.57 12.67 4.72 12.67L4.72 12.67ZM11.42 5.50L12.68 5.50L12.68 12.67L11.42 12.67L11.42 5.50ZM11.42 2.90L12.68 2.90L12.68 4.09L11.42 4.09L11.42 2.90ZM14.80 12.33L14.80 12.33L14.80 11.24L14.80 11.24Q16.06 11.65 17.36 11.65L17.36 11.65L17.36 11.65Q19.07 11.65 19.07 10.62L19.07 10.62L19.07 10.62Q19.07 9.67 17.88 9.67L17.88 9.67L16.85 9.67L16.85 9.67Q14.53 9.67 14.53 7.55L14.53 7.55L14.53 7.55Q14.53 5.50 17.51 5.50L17.51 5.50L17.51 5.50Q18.80 5.50 20.06 5.84L20.06 5.84L20.06 6.93L20.06 6.93Q18.80 6.52 17.51 6.52L17.51 6.52L17.51 6.52Q15.72 6.52 15.72 7.55L15.72 7.55L15.72 7.55Q15.72 8.50 16.85 8.50L16.85 8.50L17.88 8.50L17.88 8.50Q20.34 8.50 20.34 10.62L20.34 10.62L20.34 10.62Q20.34 12.67 17.36 12.67L17.36 12.67L17.36 12.67Q16.06 12.67 14.80 12.33ZM27.45 11.44L27.45 12.47L27.45 12.47Q26.56 12.67 25.53 12.67L25.53 12.67L25.53 12.67Q21.70 12.67 21.70 8.95L21.70 8.95L21.70 8.95Q21.70 5.50 25.53 5.50L25.53 5.50L25.53 5.50Q26.56 5.50 27.45 5.70L27.45 5.70L27.45 6.73L27.45 6.73Q26.56 6.52 25.46 6.52L25.46 6.52L25.46 6.52Q22.97 6.52 22.97 8.95L22.97 8.95L22.97 8.95Q22.97 11.65 25.46 11.65L25.46 11.65L25.46 11.65Q26.56 11.65 27.45 11.44L27.45 11.44ZM33.97 5.50L35.24 5.50L35.24 12.67L34.37 12.67L34.15 11.76L34.15 11.76Q32.85 12.67 31.53 12.67L31.53 12.67L31.53 12.67Q29.05 12.67 29.05 10.00L29.05 10.00L29.05 5.50L30.32 5.50L30.32 10.02L30.32 10.02Q30.32 11.62 31.90 11.62L31.90 11.62L31.90 11.62Q32.99 11.62 33.97 10.71L33.97 10.71L33.97 5.50ZM37.22 12.33L37.22 12.33L37.22 11.24L37.22 11.24Q38.49 11.65 39.78 11.65L39.78 11.65L39.78 11.65Q41.49 11.65 41.49 10.62L41.49 10.62L41.49 10.62Q41.49 9.67 40.30 9.67L40.30 9.67L39.27 9.67L39.27 9.67Q36.95 9.67 36.95 7.55L36.95 7.55L36.95 7.55Q36.95 5.50 39.94 5.50L39.94 5.50L39.94 5.50Q41.22 5.50 42.49 5.84L42.49 5.84L42.49 6.93L42.49 6.93Q41.22 6.52 39.94 6.52L39.94 6.52L39.94 6.52Q38.14 6.52 38.14 7.55L38.14 7.55L38.14 7.55Q38.14 8.50 39.27 8.50L39.27 8.50L40.30 8.50L40.30 8.50Q42.76 8.50 42.76 10.62L42.76 10.62L42.76 10.62Q42.76 12.67 39.78 12.67L39.78 12.67L39.78 12.67Q38.49 12.67 37.22 12.33ZM44.40 12.33L44.40 12.33L44.40 11.24L44.40 11.24Q45.66 11.65 46.96 11.65L46.96 11.65L46.96 11.65Q48.67 11.65 48.67 10.62L48.67 10.62L48.67 10.62Q48.67 9.67 47.48 9.67L47.48 9.67L46.45 9.67L46.45 9.67Q44.13 9.67 44.13 7.55L44.13 7.55L44.13 7.55Q44.13 5.50 47.11 5.50L47.11 5.50L47.11 5.50Q48.40 5.50 49.66 5.84L49.66 5.84L49.66 6.93L49.66 6.93Q48.40 6.52 47.11 6.52L47.11 6.52L47.11 6.52Q45.32 6.52 45.32 7.55L45.32 7.55L45.32 7.55Q45.32 8.50 46.45 8.50L46.45 8.50L47.48 8.50L47.48 8.50Q49.94 8.50 49.94 10.62L49.94 10.62L49.94 10.62Q49.94 12.67 46.96 12.67L46.96 12.67L46.96 12.67Q45.66 12.67 44.40 12.33Z"></path></g><defs data-v-fde0c5aa=""><linearGradient data-v-fde0c5aa="" gradientTransform="rotate(25)" id="75503061-58bf-4689-b965-a6e054f6cfe2" x1="0%" y1="0%" x2="100%" y2="0%"><stop data-v-fde0c5aa="" offset="0%" stop-color="#4E1A70" stop-opacity="1"></stop><stop data-v-fde0c5aa="" offset="100%" stop-color="#2B4CF2" stop-opacity="1"></stop></linearGradient></defs><g data-v-fde0c5aa="" id="7f5ded7f-de99-405e-8fee-3b30ba5db93c" stroke="none" fill="url(#75503061-58bf-4689-b965-a6e054f6cfe2)" transform="matrix(0.5786343796412537,0,0,0.5786343796412537,153.5859304894301,1.3488269872359098)"><switch><g><path d="M-121.2 250c-3.6 0-6.7 2.6-7.5 6h-2.9c-.3-5.2-2.2-10-5.4-13.8l2.2-2.2c1.2.8 2.7 1.2 4.1 1.2 2 0 3.9-.7 5.4-2.2 3-3 3-7.8 0-10.8-3-3-7.8-3-10.8 0-2.6 2.6-2.9 6.5-1 9.5l-2.1 2.1c-3.8-3.4-8.7-5.6-14.1-6v-3.1c3.4-.8 6-3.8 6-7.5 0-4.2-3.4-7.6-7.6-7.6s-7.6 3.4-7.6 7.6c0 3.6 2.6 6.7 6 7.5v3.1c-5.2.4-9.9 2.4-13.6 5.6l-2.2-2.2c1.9-3 1.5-6.9-1-9.5-3-3-7.8-3-10.8 0-3 3-3 7.8 0 10.8 1.4 1.4 3.4 2.2 5.4 2.2 1.5 0 2.9-.4 4.1-1.2l2.1 2.1c-3.4 3.9-5.5 8.8-5.8 14.3h-2.9c-.8-3.4-3.8-6-7.5-6-4.2 0-7.6 3.4-7.6 7.6s3.4 7.6 7.6 7.6c3.6 0 6.7-2.6 7.5-6h3c.5 5.2 2.7 10 6 13.6l-2 2c-3-1.9-6.9-1.5-9.5 1-3 3-3 7.8 0 10.8 1.5 1.5 3.4 2.2 5.4 2.2 2 0 3.9-.7 5.4-2.2 2.6-2.6 2.9-6.5 1-9.5l2.1-2.1c3.7 3 8.3 5 13.3 5.4v2.8c-3.4.8-6 3.8-6 7.5 0 4.2 3.4 7.6 7.6 7.6s7.6-3.4 7.6-7.6c0-3.6-2.6-6.7-6-7.5v-2.8c5.3-.4 10-2.5 13.8-5.7l2 2c-1.9 3-1.5 6.9 1 9.5 1.4 1.4 3.4 2.2 5.4 2.2 2 0 4-.8 5.4-2.2 3-3 3-7.8 0-10.8-1.4-1.4-3.4-2.2-5.4-2.2-1.5 0-2.9.4-4.1 1.2l-2-2c3.1-3.6 5.1-8.2 5.6-13.2h3c.8 3.4 3.8 6 7.5 6 4.2 0 7.6-3.4 7.6-7.6s-3.5-7.5-7.7-7.5zm-12.5-19.5c.8-.8 1.9-1.3 3.1-1.3 1.1 0 2.2.4 3.1 1.3 1.7 1.7 1.7 4.4 0 6.1-1.7 1.7-4.4 1.7-6.1 0-1.8-1.7-1.8-4.5-.1-6.1zm-25.6-7.3c0-2.4 1.9-4.3 4.3-4.3s4.3 1.9 4.3 4.3-1.9 4.3-4.3 4.3-4.3-1.9-4.3-4.3zm-22.7 12.9c-1.7-1.7-1.7-4.4 0-6.1.8-.8 1.9-1.3 3.1-1.3s2.2.4 3.1 1.3c1.7 1.7 1.7 4.4 0 6.1-.8.8-1.9 1.3-3.1 1.3-1.2 0-2.3-.5-3.1-1.3zm-6.8 25.8c-2.4 0-4.3-1.9-4.3-4.3s1.9-4.3 4.3-4.3 4.3 1.9 4.3 4.3-1.9 4.3-4.3 4.3zm37.7-3.4c-.9 1-2.1 1.5-3.7 1.5h-.1c-1.6 0-2.8-.5-3.7-1.5-2.4-2.7-1.9-8-1.9-8v-.1c.3-5.5 4.2-5.9 5.4-5.9H-154.8c.9 0 5.3.1 5.6 5.9v.1c-.1 0 .5 5.3-1.9 8zm-4 4.8H-154.8c.8 0 1.5-.1 2.1-.3.3.4.6.9 1.2 1.4-.8 1.1-2.1 1.8-3.5 1.8-1.3 0-2.5-.6-3.4-1.6.6-.5 1-1.1 1.3-1.5.7.1 1.4.2 2 .2zm-6 3.2c1.4 1.9 3.7 3.1 6.2 3.1s4.8-1.2 6.2-3.2c1.5.8 3.5 1.6 6.2 2.3.4.1 1.6.4 1.7 2.8-3.6 3.6-8.7 5.9-14.2 5.9-5.3 0-10.2-2.1-13.8-5.4 0-1.3.3-2.9 1.7-3.2 2.6-.8 4.5-1.6 6-2.3zm-14.3 17.9c-.8.8-1.9 1.3-3.1 1.3-1.2 0-2.2-.4-3.1-1.3-.8-.8-1.3-1.9-1.3-3.1 0-1.2.4-2.2 1.3-3.1.8-.8 1.9-1.3 3.1-1.3 1.2 0 2.2.4 3.1 1.3.8.8 1.3 1.9 1.3 3.1-.1 1.2-.5 2.3-1.3 3.1zm24.7 6.4c0 2.4-1.9 4.3-4.3 4.3s-4.3-1.9-4.3-4.3 1.9-4.3 4.3-4.3 4.3 1.9 4.3 4.3zm22.7-12.9c.8.8 1.3 1.9 1.3 3.1s-.4 2.2-1.3 3.1c-.8.8-1.9 1.3-3.1 1.3-1.2 0-2.2-.4-3.1-1.3-.8-.8-1.3-1.9-1.3-3.1s.4-2.2 1.3-3.1c.8-.8 1.9-1.3 3.1-1.3 1.2 0 2.3.5 3.1 1.3zm-10.2-9.7c-.7-1.4-1.9-2.4-3.5-2.8-5.1-1.3-7.2-2.9-7.9-3.8.3-.3.7-.6 1-.9 3.2-3.7 2.8-9.8 2.7-10.5-.3-7.1-5.5-9-8.7-9h-.2c-3.2-.1-8.6 1.7-9 9-.1.7-.6 6.9 2.7 10.5.3.4.7.7 1.1 1-.7.8-2.7 2.4-7.8 3.7-1.7.4-3 1.6-3.6 3.3-2.3-3.3-3.6-7.3-3.6-11.5 0-11.1 9-20.2 20.2-20.2s20.2 9 20.2 20.2c-.2 4-1.5 7.8-3.6 11zm17-6.3c-2.4 0-4.3-1.9-4.3-4.3s1.9-4.3 4.3-4.3 4.3 1.9 4.3 4.3-1.9 4.3-4.3 4.3z"></path></g></switch></g><!----></svg>